<?xml version="1.0" standalone="no"?>
<!DOCTYPE svg PUBLIC "-//W3C//DTD SVG 20010904//EN"
 "http://www.w3.org/TR/2001/REC-SVG-20010904/DTD/svg10.dtd">
<svg version="1.0" xmlns="http://www.w3.org/2000/svg"
 width="403.000000pt" height="380.000000pt" viewBox="0 0 403.000000 380.000000"
 preserveAspectRatio="xMidYMid meet">

<g transform="translate(0.000000,380.000000) scale(0.100000,-0.100000)"
fill="#000000" stroke="none">
<path d="M2975 3665 c-432 -69 -791 -271 -1029 -579 -214 -277 -512 -805 -676
-1196 -28 -69 -98 -222 -155 -340 -158 -329 -257 -570 -406 -987 -59 -166 -79
-235 -79 -273 0 -181 228 -304 360 -194 40 35 53 60 110 228 113 331 346 905
360 889 4 -4 56 -116 115 -248 173 -383 353 -756 384 -795 41 -51 84 -73 144
-73 64 0 113 20 165 68 53 47 76 107 70 182 -4 49 -23 96 -118 293 -158 329
-390 842 -384 852 3 4 27 8 53 8 81 0 781 136 810 158 55 41 66 67 66 160 0
101 -24 183 -87 302 -52 99 -103 166 -208 275 -48 50 -100 114 -116 143 -17
32 -63 87 -115 137 l-87 83 35 53 c54 79 195 221 276 277 181 125 398 203 644
232 154 18 199 59 191 172 -3 44 -12 68 -34 100 -57 81 -127 99 -289 73z
m-725 -1557 c34 -38 115 -157 109 -162 -7 -6 -334 -65 -337 -61 -9 9 175 254
191 255 4 0 21 -15 37 -32z"/>
<path d="M2630 3061 c-51 -17 -106 -50 -142 -88 -112 -116 -109 -311 7 -428
127 -126 344 -114 455 26 49 63 64 107 65 194 0 166 -125 296 -290 302 -38 1
-81 -1 -95 -6z"/>
</g>
</svg>
